<svg xmlns="http://www.w3.org/2000/svg" viewBox="0 0 900 480" font-family="'Segoe UI',system-ui,-apple-system,sans-serif">
  <defs>
    <linearGradient id="bg3" x1="0%" y1="0%" x2="100%" y2="100%">
      <stop offset="0%" style="stop-color:#0f172a"/>
      <stop offset="100%" style="stop-color:#1e293b"/>
    </linearGradient>
    <filter id="sh3">
      <feDropShadow dx="0" dy="2" stdDeviation="3" flood-color="#000" flood-opacity="0.3"/>
    </filter>
  </defs>

  <rect width="900" height="480" fill="url(#bg3)" rx="16"/>

  <!-- Title -->
  <text x="450" y="38" text-anchor="middle" fill="#f8fafc" font-size="20" font-weight="700">Tech Stack</text>
  <text x="450" y="58" text-anchor="middle" fill="#94a3b8" font-size="12">Production-grade tooling across the full stack</text>

  <!-- Frontend Column -->
  <text x="160" y="90" text-anchor="middle" fill="#60a5fa" font-size="13" font-weight="700">FRONTEND</text>
  <line x1="80" y1="98" x2="240" y2="98" stroke="#1e40af" stroke-width="1"/>

  <rect x="50" y="110" width="220" height="36" rx="8" fill="#02569B" filter="url(#sh3)"/>
  <text x="160" y="133" text-anchor="middle" fill="#fff" font-size="12" font-weight="600">Flutter · Dart 3.9</text>

  <rect x="50" y="155" width="105" height="36" rx="8" fill="#1a2332" stroke="#334155" stroke-width="1"/>
  <text x="102" y="178" text-anchor="middle" fill="#94a3b8" font-size="10">Dio HTTP</text>

  <rect x="165" y="155" width="105" height="36" rx="8" fill="#1a2332" stroke="#334155" stroke-width="1"/>
  <text x="217" y="178" text-anchor="middle" fill="#94a3b8" font-size="10">Socket.IO</text>

  <rect x="50" y="200" width="105" height="36" rx="8" fill="#1a2332" stroke="#334155" stroke-width="1"/>
  <text x="102" y="223" text-anchor="middle" fill="#94a3b8" font-size="10">fl_chart</text>

  <rect x="165" y="200" width="105" height="36" rx="8" fill="#1a2332" stroke="#334155" stroke-width="1"/>
  <text x="217" y="223" text-anchor="middle" fill="#94a3b8" font-size="10">Google Fonts</text>

  <rect x="50" y="245" width="105" height="36" rx="8" fill="#1a2332" stroke="#334155" stroke-width="1"/>
  <text x="102" y="268" text-anchor="middle" fill="#94a3b8" font-size="10">Lottie</text>

  <rect x="165" y="245" width="105" height="36" rx="8" fill="#1a2332" stroke="#334155" stroke-width="1"/>
  <text x="217" y="268" text-anchor="middle" fill="#94a3b8" font-size="10">TTS / STT</text>

  <!-- Backend Column -->
  <text x="450" y="90" text-anchor="middle" fill="#10b981" font-size="13" font-weight="700">BACKEND</text>
  <line x1="360" y1="98" x2="540" y2="98" stroke="#065f46" stroke-width="1"/>

  <rect x="340" y="110" width="220" height="36" rx="8" fill="#1a1a1a" filter="url(#sh3)"/>
  <text x="450" y="133" text-anchor="middle" fill="#fff" font-size="12" font-weight="600">Node.js + Express + TS</text>

  <rect x="340" y="155" width="105" height="36" rx="8" fill="#1a2332" stroke="#334155" stroke-width="1"/>
  <text x="392" y="178" text-anchor="middle" fill="#94a3b8" font-size="10">Drizzle ORM</text>

  <rect x="455" y="155" width="105" height="36" rx="8" fill="#1a2332" stroke="#334155" stroke-width="1"/>
  <text x="507" y="178" text-anchor="middle" fill="#94a3b8" font-size="10">Zod Schemas</text>

  <rect x="340" y="200" width="105" height="36" rx="8" fill="#1a2332" stroke="#334155" stroke-width="1"/>
  <text x="392" y="223" text-anchor="middle" fill="#94a3b8" font-size="10">Multer</text>

  <rect x="455" y="200" width="105" height="36" rx="8" fill="#1a2332" stroke="#334155" stroke-width="1"/>
  <text x="507" y="223" text-anchor="middle" fill="#94a3b8" font-size="10">Helmet + CORS</text>

  <rect x="340" y="245" width="105" height="36" rx="8" fill="#1a2332" stroke="#334155" stroke-width="1"/>
  <text x="392" y="268" text-anchor="middle" fill="#94a3b8" font-size="10">JWT Auth</text>

  <rect x="455" y="245" width="105" height="36" rx="8" fill="#1a2332" stroke="#334155" stroke-width="1"/>
  <text x="507" y="268" text-anchor="middle" fill="#94a3b8" font-size="10">Rate Limiting</text>

  <!-- Data Column -->
  <text x="740" y="90" text-anchor="middle" fill="#f59e0b" font-size="13" font-weight="700">DATA &amp; AI</text>
  <line x1="660" y1="98" x2="820" y2="98" stroke="#92400e" stroke-width="1"/>

  <rect x="630" y="110" width="220" height="36" rx="8" fill="#059669" filter="url(#sh3)"/>
  <text x="740" y="133" text-anchor="middle" fill="#fff" font-size="12" font-weight="600">SQLite · sql.js</text>

  <rect x="630" y="155" width="105" height="36" rx="8" fill="#1a2332" stroke="#334155" stroke-width="1"/>
  <text x="682" y="178" text-anchor="middle" fill="#94a3b8" font-size="10">Tesseract.js</text>

  <rect x="745" y="155" width="105" height="36" rx="8" fill="#1a2332" stroke="#334155" stroke-width="1"/>
  <text x="797" y="178" text-anchor="middle" fill="#94a3b8" font-size="10">pdf-parse</text>

  <rect x="630" y="200" width="105" height="36" rx="8" fill="#1a2332" stroke="#334155" stroke-width="1"/>
  <text x="682" y="223" text-anchor="middle" fill="#94a3b8" font-size="10">Mammoth</text>

  <rect x="745" y="200" width="105" height="36" rx="8" fill="#1a2332" stroke="#334155" stroke-width="1"/>
  <text x="797" y="223" text-anchor="middle" fill="#94a3b8" font-size="10">Cheerio</text>

  <rect x="630" y="245" width="105" height="36" rx="8" fill="#7c3aed" filter="url(#sh3)"/>
  <text x="682" y="268" text-anchor="middle" fill="#fff" font-size="10" font-weight="600">Gemini</text>

  <rect x="745" y="245" width="105" height="36" rx="8" fill="#7c3aed" filter="url(#sh3)"/>
  <text x="797" y="268" text-anchor="middle" fill="#fff" font-size="10" font-weight="600">OpenAI</text>

  <rect x="630" y="290" width="105" height="36" rx="8" fill="#7c3aed" filter="url(#sh3)"/>
  <text x="682" y="313" text-anchor="middle" fill="#fff" font-size="10" font-weight="600">OpenRouter</text>

  <rect x="745" y="290" width="105" height="36" rx="8" fill="#7c3aed" filter="url(#sh3)"/>
  <text x="797" y="313" text-anchor="middle" fill="#fff" font-size="10" font-weight="600">Ollama</text>

  <!-- Infrastructure Row -->
  <rect x="50" y="360" width="800" height="36" rx="8" fill="#1a2332" stroke="#334155" stroke-width="1"/>
  <text x="450" y="383" text-anchor="middle" fill="#94a3b8" font-size="11" font-weight="600">Infrastructure</text>

  <rect x="50" y="405" width="110" height="32" rx="6" fill="#0f172a" stroke="#475569" stroke-width="1"/>
  <text x="105" y="425" text-anchor="middle" fill="#64748b" font-size="9">Socket.IO</text>

  <rect x="170" y="405" width="110" height="32" rx="6" fill="#0f172a" stroke="#475569" stroke-width="1"/>
  <text x="225" y="425" text-anchor="middle" fill="#64748b" font-size="9">Custom Queue</text>

  <rect x="290" y="405" width="110" height="32" rx="6" fill="#0f172a" stroke="#475569" stroke-width="1"/>
  <text x="345" y="425" text-anchor="middle" fill="#64748b" font-size="9">AES-256 Encrypt</text>

  <rect x="410" y="405" width="110" height="32" rx="6" fill="#0f172a" stroke="#475569" stroke-width="1"/>
  <text x="465" y="425" text-anchor="middle" fill="#64748b" font-size="9">Nodemailer</text>

  <rect x="530" y="405" width="110" height="32" rx="6" fill="#0f172a" stroke="#475569" stroke-width="1"/>
  <text x="585" y="425" text-anchor="middle" fill="#64748b" font-size="9">PDFKit</text>

  <rect x="650" y="405" width="110" height="32" rx="6" fill="#0f172a" stroke="#475569" stroke-width="1"/>
  <text x="705" y="425" text-anchor="middle" fill="#64748b" font-size="9">docx generator</text>

  <rect x="770" y="405" width="80" height="32" rx="6" fill="#0f172a" stroke="#475569" stroke-width="1"/>
  <text x="810" y="425" text-anchor="middle" fill="#64748b" font-size="9">sharp</text>
</svg>